<?xml version="1.0" standalone="no"?>
<!DOCTYPE svg PUBLIC "-//W3C//DTD SVG 20010904//EN"
 "http://www.w3.org/TR/2001/REC-SVG-20010904/DTD/svg10.dtd">
<svg version="1.0" xmlns="http://www.w3.org/2000/svg"
 width="256.000000pt" height="242.000000pt" viewBox="0 0 256.000000 242.000000"
 preserveAspectRatio="xMidYMid meet">

<g transform="translate(0.000000,242.000000) scale(0.100000,-0.100000)"
fill="#000000" stroke="none">
<path d="M697 2024 c-60 -31 -67 -48 -34 -82 24 -24 28 -24 44 -10 30 26 109
41 137 26 13 -7 117 -103 230 -213 114 -110 218 -204 231 -208 27 -9 57 8 431
245 183 116 210 125 258 87 26 -21 46 -18 46 6 0 23 -92 77 -119 70 -22 -6
-23 -5 -10 11 13 16 12 16 -11 4 -23 -12 -395 -240 -520 -318 -30 -19 -46 -31
-35 -27 43 16 68 18 60 5 -5 -9 -4 -11 4 -6 6 4 8 12 5 18 -5 7 -1 9 9 5 9 -3
19 -1 23 5 5 7 2 8 -6 3 -9 -5 -11 -4 -6 4 4 6 15 10 24 9 9 -2 17 3 17 10 0
13 23 32 38 32 5 0 5 -6 1 -12 -4 -8 -3 -10 2 -5 5 5 9 14 9 19 0 6 6 13 14
16 9 3 11 0 6 -8 -5 -9 -4 -11 4 -6 6 4 8 12 5 18 -4 6 -1 9 7 6 18 -7 51 10
44 22 -3 5 3 14 14 19 29 16 38 13 15 -5 -18 -14 -18 -15 3 -4 13 6 22 16 20
22 -1 6 4 13 12 16 9 3 11 0 6 -9 -5 -7 9 -2 31 11 63 38 109 70 102 70 -4 0
-33 -16 -64 -36 -30 -20 -58 -34 -60 -31 -3 2 17 17 43 32 26 16 59 35 73 44
15 10 21 11 17 4 -12 -19 1 -16 41 9 20 12 32 17 29 11 -4 -6 -80 -57 -170
-114 -89 -56 -204 -129 -256 -163 -62 -39 -96 -56 -99 -48 -3 9 -8 10 -15 3
-7 -5 -25 -7 -42 -4 -29 6 -69 42 -357 320 -141 137 -146 140 -229 98 -46 -24
-49 -24 -37 -5 7 11 31 29 53 40 22 11 33 20 25 20 -8 -1 -37 -12 -63 -26z
m43 -44 c0 -12 -42 -31 -50 -23 -6 5 30 33 42 33 4 0 8 -5 8 -10z m860 -234
c0 -2 -7 -7 -16 -10 -8 -3 -12 -2 -9 4 6 10 25 14 25 6z m-290 -192 c0 -2 -9
0 -20 6 -11 6 -20 13 -20 16 0 2 9 0 20 -6 11 -6 20 -13 20 -16z"/>
<path d="M2095 1830 c-132 -94 -669 -438 -715 -458 -48 -20 -40 -24 17 -6 10
3 0 -5 -22 -17 -27 -15 -63 -24 -110 -26 -59 -4 -77 -1 -113 19 -24 12 -134
113 -245 223 -134 133 -156 153 -67 60 74 -77 170 -178 213 -223 85 -91 150
-129 229 -134 41 -2 59 8 451 271 348 233 407 276 407 297 0 13 -1 24 -2 23
-2 0 -21 -13 -43 -29z m-920 -518 c-3 -3 -11 0 -18 7 -9 10 -8 11 6 5 10 -3
15 -9 12 -12z"/>
<path d="M2397 1660 c4 -14 0 -20 -11 -20 -9 0 -16 -6 -16 -12 -1 -7 -24 -29
-53 -49 -111 -76 -346 -245 -374 -269 -7 -6 -13 -7 -13 -3 0 4 -6 1 -13 -7
-19 -24 -84 -70 -90 -64 -8 8 -19 -34 -12 -46 4 -6 -8 -10 -29 -10 -33 0 -36
-2 -36 -29 0 -25 -5 -31 -30 -36 -16 -4 -30 -11 -30 -16 0 -6 -8 -19 -19 -30
-13 -15 -25 -18 -45 -13 -22 5 -26 3 -26 -14 0 -11 -8 -22 -21 -25 -11 -3 -19
-11 -18 -19 5 -39 0 -43 -51 -40 -47 4 -55 1 -107 -40 -193 -150 -328 -245
-331 -233 -5 19 -51 27 -92 15 -19 -5 -47 -10 -62 -10 -16 0 -28 -4 -28 -10 0
-5 -7 -10 -15 -10 -8 0 -15 7 -15 15 0 8 -4 15 -10 15 -17 0 -90 -34 -90 -42
0 -11 -38 -10 -44 1 -3 5 -16 7 -28 3 -21 -5 -21 -6 -2 -13 13 -5 6 -8 -26 -8
-25 -1 -58 -8 -74 -16 -16 -9 -35 -14 -42 -11 -7 3 -24 -5 -39 -18 -23 -20
-25 -26 -15 -52 l10 -29 -30 35 c-37 42 -45 70 -30 102 11 22 10 22 -4 4 -30
-38 -20 -70 60 -177 85 -114 142 -179 157 -179 6 0 2 9 -8 20 -17 19 -17 20 1
20 10 0 27 -12 39 -26 17 -22 24 -24 46 -15 24 9 521 378 664 493 81 65 120
83 143 66 10 -7 157 -155 325 -328 173 -178 320 -321 337 -328 45 -18 84 4
181 102 81 81 129 155 129 199 0 36 -32 72 -201 228 -86 79 -221 204 -300 278
-79 74 -150 140 -158 147 -30 27 8 62 251 238 316 229 308 222 308 251 0 13
-4 26 -9 29 -5 4 -7 -3 -4 -14z m-1344 -984 c4 -10 1 -13 -9 -9 -10 4 -13 0
-8 -13 5 -16 4 -16 -5 -4 -6 8 -11 21 -11 28 0 17 27 15 33 -2z m-78 -45 c3
-5 1 -12 -5 -16 -5 -3 -10 1 -10 9 0 18 6 21 15 7z"/>
<path d="M1283 1343 c9 -2 23 -2 30 0 6 3 -1 5 -18 5 -16 0 -22 -2 -12 -5z"/>
</g>
</svg>
